#!OML:ASF F:\VICON\USERDATA\INSTALL\rory3\rory3.ASF
:FULLY-SPECIFIED
:DEGREES
36
root 1.1112283789485409 18.12486913471437 -0.028124178917018128 -3.5957083468621156 -0.7149942238849801 0.8757646121355198
lfemur -4.235791722114861 -1.394093339266804 -24.201958401168596
ltibia 26.86353629475691
lfoot -13.711083098306023 1.4346531901891115
ltoes -0.34255577938179904
rfemur -23.685006559871105 -4.316455169998957 19.776082707152312
rtibia 72.88394463234556
rfoot -1.776815718291532 -10.389447942599247
rtoes 10.888774914258057
lowerback 11.90120132081661 0.06715795767321073 -1.4658853716432765
upperback -0.15651925138691275 -0.03798533358303813 1.0909914503697284
thorax -6.12368293017617 0.06127907145488354 1.856185846309622
lowerneck -16.23947011348652 -3.295836780865417 -2.015086252838533
upperneck 20.561689963493222 -4.423899574454655 1.8808326533490014
head 9.255777376154766 -2.0478579508044894 0.4169185869818595
lclavicle 2.985611236004837e-16 5.491857586229957e-17
lhumerus -31.110373529119656 7.374784883849938 80.51350811509266
lradius 21.88654162095134
lwrist 6.659145117406936
lhand -30.496869683589708 15.287390513372628
lfingers 7.125020000000001
lthumb -3.8938529088968417 45.41005544356593
rclavicle 2.9749763685937605e-16 5.552294481509061e-17
rhumerus -28.187933490247556 -21.386578194204766 -79.15197974311805
rradius 29.0174138086628
rwrist 4.618107198813979
rhand -17.56562475780773 23.23004106547532
rfingers 7.125020000000001
rthumb 8.530157338778258 -6.843941568641494
37
root 1.1239894377309194 18.070385417880928 0.6195427786638863 -3.4976553442468994 0.02987822539747642 1.1892628515871837
lfemur -2.285941298432821 -1.3839984982233686 -24.83404765784111
ltibia 27.13186204759075
lfoot -15.913345997407315 1.5073577039012562
ltoes -0.910549863342732
rfemur -27.04535803635781 -4.653097083952527 19.88049979480626
rtibia 70.32011610815394
rfoot -5.003487830936352 -9.299814625053365
rtoes 7.45151816357095
lowerback 11.940624644213843 -0.3521261615352328 -2.058332113587694
upperback -0.2209622683060659 -0.636761856180931 1.1741285934699377
thorax -6.163956551737942 -0.21947718197353291 2.6694715926862678
lowerneck -16.058716534250088 -3.192498029062819 -2.116566909772841
upperneck 20.6581054241445 -4.1801454854508355 1.7726607206256244
head 9.229093417843291 -1.9588111205819396 0.43296618351104044
lclavicle 2.9885115392286467e-16 5.512663013245418e-17
lhumerus -29.379797007399475 5.031097845446775 81.14139780160593
lradius 23.359912791249855
lwrist 7.465269782749318
lhand -30.18650821880827 14.991068916340078
lfingers 7.125020000000001
lthumb -3.7076444926133405 44.892127881242665
rclavicle 2.973220976648147e-16 5.549591113944478e-17
rhumerus -29.46028943983176 -21.63379814554692 -78.68281450505589
rradius 28.86180992400667
rwrist 3.625943664603636
rhand -17.620185517205286 23.074139903856878
rfingers 7.125020000000001
rthumb 8.563820473901933 -6.821553140869981
38
root 1.1302619108722947 17.995077498290037 1.507577833270588 -3.505092340803858 0.8451368783040728 1.6327692813115897
lfemur -0.4470974318939591 -1.28544873630121 -25.475157020434942
ltibia 27.33553128087713
lfoot -17.603656542928825 1.2088951975228666
ltoes -1.893981676265386
rfemur -29.584020002191785 -5.09637853673721 20.034739664439336
rtibia 65.07344456862667
rfoot -7.443443948779864 -9.460763485791986
rtoes 1.136636168178883
lowerback 12.01119469285365 -0.7004530175722598 -2.6983512393572955
upperback -0.10271683607497288 -1.1300654567364854 1.29901988427579
thorax -6.170537513669019 -0.46355720045853666 3.440119391126128
lowerneck -16.164556535717917 -3.1771524957997253 -2.306939792038226
upperneck 20.878828613210935 -4.09774423254983 1.7575463107568157
head 9.32343122610178 -1.926843414427212 0.4650611544048043
lclavicle 2.9924649653869915e-16 5.541089793132341e-17
lhumerus -27.82096061468992 3.249340405355702 81.37823302442136
lradius 25.182400969683393
lwrist 8.256740725885841
lhand -30.062595564928003 15.12626772598941
lfingers 7.125020000000001
lthumb -3.5256869477375528 44.801858004909654
rclavicle 3.0042030955891513e-16 5.781074421213891e-17
rhumerus -30.745975553754363 -21.37096903278129 -78.39815545488226
rradius 29.240232075131445
rwrist 2.2170510141196624
rhand -17.67074188241424 23.2209927384637
rfingers 7.125020000000001
rthumb 8.537186477086697 -6.629520142945974
39
root 1.1256556497843837 17.95137734293828 2.0375739174832344 -3.3462343918180464 1.5579413930797656 2.0916507058254785
lfemur 1.7135842932612642 -1.1369106288543323 -26.005967020545576
ltibia 26.26174151654273
lfoot -18.753239162431562 0.9355334952344583
ltoes -2.119992757830098
rfemur -31.028667302326383 -5.117752577757376 20.127174224409742
rtibia 56.913171284690776
rfoot -7.647400034410023 -10.82291129841527
rtoes 0.9902479137494771
lowerback 11.924772957892944 -0.9385966374166901 -3.5350015765613962
upperback 0.03009806973748766 -1.5673391832602313 1.3176223537066574
thorax -6.161750670086029 -0.6580213629708569 4.197371415060578
lowerneck -16.409760969810755 -3.2309585364529654 -2.5207481726501464
upperneck 21.05324640072936 -4.143592205873317 1.9838498076914854
head 9.448536972316914 -1.9364033720575804 0.5467592630153356
lclavicle 2.989160257828413e-16 5.5173688485543003e-17
lhumerus -26.51709781547098 1.7957282786815059 81.18510512113423
lradius 27.389457412546136
lwrist 8.390343458886315
lhand -29.701588681971725 17.287776778293807
lfingers 7.125020000000001
lthumb -3.2091074190233853 46.795151480370116
rclavicle 2.97435130535066e-16 5.560096670286738e-17
rhumerus -32.146170853560086 -21.099350353652238 -78.2358035575834
rradius 29.940635543304776
rwrist 1.4906209860227873
rhand -17.740724658595955 22.991354283778463
rfingers 7.125020000000001
rthumb 8.496775717152724 -6.5988386798512675
40
root 1.1062253589438262 17.940637877540578 2.609480069430991 -2.879432189947148 1.907390257539713 2.3724476295867696
lfemur 4.264721252343921 -0.9256962714652226 -26.337727999538192
ltibia 23.751766111040787
lfoot -18.819993796252962 0.30542823315713763
ltoes -3.523748573838402
rfemur -31.437847111209564 -4.483914513708138 20.27334206554452
rtibia 46.04294233057114
rfoot -5.804093882844828 -12.849988913078368
rtoes -2.4186752602696915
lowerback 11.57356554304048 -1.0434481448881303 -4.2127330909372676
upperback 0.09351372095776578 -1.79099950714594 1.3018301295372907
thorax -6.074158097288345 -0.750910008001035 4.695052411480197
lowerneck -16.48008844632765 -3.2070898969907793 -2.56407054051945
upperneck 20.75438193225215 -4.12013386423353 2.0542143570588096
head 9.35420337147837 -1.9249850295847892 0.5803744712441442
lclavicle 2.9911760758914306e-16 5.531843385269156e-17
lhumerus -25.392021316986387 0.11555079526708711 81.04402162867437
lradius 29.715774348632326
lwrist 9.332708542734744
lhand -29.859133746285295 18.466275701653263
lfingers 7.125020000000001
lthumb -3.4043065519802767 47.61874957119569
rclavicle 2.9788034334374256e-16 5.589637251398158e-17
rhumerus -33.37789564689979 -21.095333299586414 -77.92940868378969
rradius 30.10607356814625
rwrist 1.1669436978595762
rhand -17.534149211412913 22.390918590327963
rfingers 7.125020000000001
rthumb 8.706316692843703 -6.9768359150091
41
root 1.0776111550763767 17.962261396840006 3.316014520975753 -1.8772778188133281 1.8132238882886402 2.360407424929896
lfemur 6.7656938948037455 -0.5598031777380781 -26.210042200662677
ltibia 20.438486638298187
lfoot -18.20243348766078 -0.4844470735470714
ltoes -5.414439486669034
rfemur -31.194334138999587 -2.605609562121556 20.178665404777217
rtibia 33.452667126584785
rfoot -3.315574516256924 -15.412207628314725
rtoes -5.4351051238282935
lowerback 10.817001124102156 -1.0484202735922856 -4.394685443525812
upperback -0.005834075680881179 -1.7463770544331683 1.375289838808007
thorax -5.912328174453738 -0.7109563118363842 4.895381028081803
lowerneck -16.592595269052932 -3.1563712763562575 -2.571615185276663
upperneck 20.590644128641625 -4.041503024982187 2.085982109689221
head 9.294158417906369 -1.8859164282958756 0.6033341318236314
lclavicle 2.985439311127729e-16 5.490619087064222e-17
lhumerus -24.671186310869892 -0.9077415877944355 80.676962855101
lradius 32.05481538808401
lwrist 9.806381063591155
lhand -29.856403849904957 19.95770585070503
lfingers 7.125020000000001
lthumb -3.235865381623817 49.36596019951248
rclavicle 2.999995830233832e-16 5.744826925573457e-17
rhumerus -34.3584094715433 -21.87675107671368 -77.22817567455618
rradius 29.082797940306826
rwrist 2.4216160214593456
rhand -17.0857480935827 22.75344436684976
rfingers 7.125020000000001
rthumb 9.21512230306646 -6.6280442181811
42
root 1.0380202090664479 17.935748499996123 3.74055598975139 -1.4557779998626224 2.075482016202388 2.7283287792630695
lfemur 9.543417769466348 -0.14966585230506935 -26.236270417764956
ltibia 17.758134926822954
lfoot -17.67397090377554 -1.3772395611164767
ltoes -8.242414489104432
rfemur -29.990305819536026 0.9780976600977496 18.673540019655235
rtibia 22.18433942574415
rfoot -3.4728796309132797 -17.501412340359064
rtoes -9.413136661608682
lowerback 10.310579378721267 -1.1820990097390172 -5.026690240189733
upperback 0.028302844171676778 -2.0934831635548647 1.32706724518619
thorax -5.744115535936863 -0.8719093410478018 5.316706246216205
lowerneck -16.7181731978978 -3.0602352436012525 -2.5009160844331477
upperneck 20.730083066844625 -3.8739004331838336 1.8960360081553327
head 9.349908993015028 -1.8176919094245592 0.549680491520558
lclavicle 2.9852710879702165e-16 5.489389742754939e-17
lhumerus -24.191852769415597 -1.1131564349321006 80.22444606102026
lradius 34.22569557627398
lwrist 10.393682504624035
lhand -29.701794668970656 20.376408479759633
lfingers 7.125020000000001
lthumb -3.0211111222045557 49.76517794013002
rclavicle 2.9908387842635863e-16 5.6773125461711e-17
rhumerus -35.47760118688821 -23.233044388015184 -76.2498964316334
rradius 27.671608391161925
rwrist 3.858184689186983
rhand -17.385756948021797 23.343088280038824
rfingers 7.125020000000001
rthumb 8.998926850612426 -6.159387825854232
